<?xml version="1.0" encoding="iso-8859-1"?>
<!-- Generator: Adobe Illustrator 16.0.0, SVG Export Plug-In . SVG Version: 6.00 Build 0)  -->
<!DOCTYPE svg PUBLIC "-//W3C//DTD SVG 1.1//EN" "http://www.w3.org/Graphics/SVG/1.1/DTD/svg11.dtd">
<svg version="1.1" id="Capa_1" xmlns="http://www.w3.org/2000/svg" xmlns:xlink="http://www.w3.org/1999/xlink" x="0px" y="0px"
	 width="255.546px" height="255.546px" viewBox="0 0 255.546 255.546" style="enable-background:new 0 0 255.546 255.546;"
	 xml:space="preserve">
<g>
	<path d="M193.534,157.581c-6.221-2.384-12.033-3.692-16.362-3.692c-7.843,0-9.668,4.551-10.095,6.509
		c-0.24,1.117-0.516,3.243-0.805,5.591c-0.035,0.324-0.09,0.702-0.138,1.104c-0.078,0.606-3.021,0.066-6.527-1.321
		c-2.45-0.973-4.773-1.928-6.341-2.576c-10.166-4.179-19.432-8.61-26.901-14.068c-8.965-6.54-15.676-16.172-17.864-19.582
		c-5.053-7.854-9.143-15.307-12.151-22.077c-4.137-9.311-4.969-17.981-4.207-18.564c0.408-0.306,0.862-0.657,1.378-1.051
		c1.865-1.432,5.744-4.41,6.723-4.915c2.279-0.945,4.02-2.84,4.894-5.335c2.612-7.434-3.02-18.669-4.81-21.936L79.633,17.897
		C73.156,6.071,67.317,0.069,62.267,0.069c0,0-0.393,0.021-0.879,0.045c-0.483,0.024-1.156,0.171-1.499,0.333l-0.615,0.282
		c-0.433,0.195-1.525,0.745-3.075,1.519c-5.431,2.717-16.732,8.38-23.956,11.244C16.342,19.81,5.729,29.024,1.546,40.163
		C-2.498,50.954,2.15,64.849,6.762,74.601l5.662,11.938c56.091,98.371,152.516,151.597,156.671,153.849l12.791,6.719
		c7.26,3.819,17.954,8.371,27.651,8.371c2.948,0,5.692-0.433,8.131-1.279c24.722-8.551,34.852-44.441,35.278-45.967l0.186-0.984
		c0.36-3.356,1.213-9.584,1.964-11.998c2.732-8.677-7.404-16.921-18.669-21.232L193.534,157.581z"/>
</g>
<g>
</g>
<g>
</g>
<g>
</g>
<g>
</g>
<g>
</g>
<g>
</g>
<g>
</g>
<g>
</g>
<g>
</g>
<g>
</g>
<g>
</g>
<g>
</g>
<g>
</g>
<g>
</g>
<g>
</g>
</svg>
